<svg width="100%" height="100%" viewBox="0 0 16 16" fill="none" xmlns="http://www.w3.org/2000/svg">
<path fill-rule="evenodd" clip-rule="evenodd" d="M8 3.5C10.4853 3.5 12.5 5.51472 12.5 8C12.5 10.4853 10.4853 12.5 8 12.5C6.74107 12.5 5.60363 11.9837 4.78633 11.15C4.59302 10.9528 4.27645 10.9496 4.07926 11.143C3.88207 11.3363 3.87892 11.6528 4.07223 11.85C5.06986 12.8677 6.46154 13.5 8 13.5C11.0376 13.5 13.5 11.0376 13.5 8C13.5 4.96243 11.0376 2.5 8 2.5C5.53654 2.5 3.45258 4.11922 2.75188 6.35018C2.66913 6.61363 2.81562 6.89428 3.07908 6.97703C3.34253 7.05977 3.62318 6.91328 3.70593 6.64983C4.27949 4.82367 5.98582 3.5 8 3.5Z" fill="currentColor"/>
<path fill-rule="evenodd" clip-rule="evenodd" d="M3 3C2.72386 3 2.5 3.22386 2.5 3.5V7H6C6.27614 7 6.5 6.77614 6.5 6.5C6.5 6.22386 6.27614 6 6 6H3.5V3.5C3.5 3.22386 3.27614 3 3 3Z" fill="currentColor"/>
</svg>
