<svg width="100%" height="100%" viewBox="0 0 16 16" fill="none" xmlns="http://www.w3.org/2000/svg">
<path fill-rule="evenodd" clip-rule="evenodd" d="M8 5.5C7.41466 5.5 7 5.93488 7 6.4C7 6.67614 6.77614 6.9 6.5 6.9C6.22386 6.9 6 6.67614 6 6.4C6 5.31873 6.92848 4.5 8 4.5C9.07152 4.5 10 5.31873 10 6.4C10 6.8034 9.86744 7.19898 9.65562 7.53033C9.53094 7.72537 9.38554 7.91664 9.24978 8.0934C9.2369 8.11017 9.2241 8.12682 9.21138 8.14335C9.08579 8.3067 8.96847 8.45929 8.8623 8.61423C8.62378 8.96232 8.5 9.24231 8.5 9.5H7.5C7.5 8.92926 7.77029 8.43877 8.03739 8.04897C8.16 7.87004 8.29431 7.69543 8.4172 7.53566C8.43051 7.51835 8.44368 7.50122 8.4567 7.48428C8.59421 7.30524 8.71464 7.14569 8.81306 6.99172C8.93629 6.79896 9 6.58774 9 6.4C9 5.93488 8.58534 5.5 8 5.5Z" fill="#565A68"/>
<path d="M8.75 10.75C8.75 11.1642 8.41421 11.5 8 11.5C7.58579 11.5 7.25 11.1642 7.25 10.75C7.25 10.3358 7.58579 10 8 10C8.41421 10 8.75 10.3358 8.75 10.75Z" fill="#565A68"/>
<path fill-rule="evenodd" clip-rule="evenodd" d="M2.75 8C2.75 10.8995 5.10051 13.25 8 13.25C10.8995 13.25 13.25 10.8995 13.25 8C13.25 5.10051 10.8995 2.75 8 2.75C5.10051 2.75 2.75 5.10051 2.75 8ZM8 2C4.68629 2 2 4.68629 2 8C2 11.3137 4.68629 14 8 14C11.3137 14 14 11.3137 14 8C14 4.68629 11.3137 2 8 2Z" fill="#0085FF"/>
</svg>
